<?xml version="1.0" standalone="no"?>
<!DOCTYPE svg PUBLIC "-//W3C//DTD SVG 20010904//EN"
 "http://www.w3.org/TR/2001/REC-SVG-20010904/DTD/svg10.dtd">
<svg version="1.0" xmlns="http://www.w3.org/2000/svg"
 width="128.000000pt" height="128.000000pt" viewBox="0 0 128.000000 128.000000"
 preserveAspectRatio="xMidYMid meet">
<metadata>
Created by potrace 1.14, written by Peter Selinger 2001-2017
</metadata>
<g transform="translate(0.000000,128.000000) scale(0.100000,-0.100000)"
fill="#000000" stroke="none">
<path d="M546 1258 c-43 -9 -106 -44 -106 -59 0 -4 -15 -23 -34 -40 -39 -35
-40 -58 -2 -113 12 -19 29 -55 36 -81 9 -32 20 -49 35 -55 27 -10 40 -40 23
-52 -7 -4 -24 -11 -38 -15 -90 -23 -147 -107 -154 -228 -1 -11 -6 -27 -11 -35
-5 -8 -10 -28 -11 -45 0 -16 -17 -64 -37 -107 -21 -42 -37 -83 -37 -92 0 -9
-12 -52 -26 -96 -23 -70 -31 -81 -63 -98 -20 -10 -43 -32 -51 -50 -8 -17 -27
-36 -42 -43 -17 -7 -28 -19 -28 -30 0 -24 -1 -24 51 6 24 14 47 25 51 25 10 0
-3 -33 -16 -42 -5 -3 25 -7 68 -7 52 0 78 4 81 12 2 7 6 23 9 37 5 22 66 70
90 70 6 0 1 -50 -10 -98 -4 -18 -1 -23 13 -20 13 2 21 25 35 103 10 54 19 117
22 140 2 22 10 57 19 77 21 49 63 60 231 63 90 1 131 5 134 13 2 7 -3 13 -12
13 -9 1 -20 3 -26 4 -5 1 -43 3 -82 4 l-73 2 -41 62 c-40 60 -62 73 -56 33 1
-10 16 -36 33 -58 17 -21 30 -40 28 -42 -2 -2 -24 -6 -49 -8 l-45 -5 0 49 1
49 -53 24 c-28 14 -59 25 -68 25 -13 0 -14 4 -5 20 6 11 10 26 9 33 -8 40 29
152 55 169 21 14 24 8 10 -29 -22 -63 -15 -199 10 -190 7 3 10 27 8 68 -2 41
3 82 13 113 12 35 14 51 5 56 -6 4 7 14 31 23 40 16 42 16 60 -6 10 -12 18
-25 19 -29 0 -3 19 -14 43 -23 51 -19 85 -10 133 36 l32 31 36 -48 c42 -55 45
-67 12 -54 -43 16 -50 -12 -9 -32 35 -17 38 -35 23 -136 -13 -78 -12 -85 8
-130 19 -41 22 -69 26 -232 3 -161 6 -185 20 -188 12 -3 16 4 16 27 l0 31 89
0 c50 0 93 -5 96 -10 4 -6 -23 -10 -74 -10 -72 0 -104 -10 -87 -27 3 -4 64 -8
136 -9 147 -3 136 -11 145 96 3 36 8 90 12 120 3 30 7 71 8 89 3 37 -22 142
-48 202 -9 20 -12 41 -8 48 8 12 1 57 -13 92 -8 18 -58 49 -80 49 -8 0 -32 24
-53 54 -43 62 -90 93 -154 101 -111 15 -106 13 -130 61 l-22 46 26 22 c15 11
31 33 36 47 14 39 -3 100 -36 127 -15 13 -41 35 -57 49 -55 48 -87 61 -130 51z
m103 -72 c27 -24 57 -48 66 -53 23 -13 35 -66 21 -94 -14 -29 -32 -35 -38 -12
-3 11 -22 23 -51 30 -26 7 -47 17 -47 23 0 15 -52 38 -98 44 -23 3 -47 8 -52
11 -15 9 30 66 65 81 53 23 81 17 134 -30z m-232 -78 c-3 -8 -6 -5 -6 6 -1 11
2 17 5 13 3 -3 4 -12 1 -19z m110 -24 c15 -3 39 -16 55 -29 15 -13 41 -26 57
-30 26 -5 31 -13 40 -56 6 -27 20 -67 31 -89 l20 -39 -31 -30 c-40 -41 -89
-42 -124 -5 -31 34 -31 44 -1 44 43 0 114 116 88 142 -8 8 -19 -6 -38 -46 -27
-54 -52 -75 -75 -61 -8 5 -8 10 0 18 17 17 13 30 -7 25 -12 -3 -24 2 -31 14
-6 10 -15 16 -20 14 -11 -7 -33 43 -25 55 3 6 12 2 19 -8 11 -14 18 -16 32 -7
10 6 18 16 18 23 0 6 6 16 14 20 10 6 10 10 1 16 -15 9 -61 -3 -82 -22 -19
-17 -20 -15 -20 32 0 32 3 35 27 30 14 -3 37 -8 52 -11z m-7 -48 c0 -2 -7 -7
-16 -10 -8 -3 -12 -2 -9 4 6 10 25 14 25 6z m380 -222 c26 -11 51 -32 75 -65
l35 -48 -48 -48 c-41 -42 -86 -115 -108 -178 -15 -42 -15 12 -1 88 21 108 14
173 -23 219 -17 20 -30 39 -30 42 0 12 61 5 100 -10z m205 -169 c32 -31 33
-78 3 -99 -32 -23 -53 -20 -90 14 -18 17 -42 30 -53 30 -17 0 -13 7 22 40 49
47 83 51 118 15z m-120 -99 c17 -12 18 -17 7 -37 -6 -13 -11 -37 -11 -54 2
-55 -1 -63 -29 -73 -22 -7 -32 -6 -50 8 -25 21 -26 30 -11 84 10 37 48 86 67
86 4 0 17 -6 27 -14z m-620 -38 c16 -7 24 -17 21 -27 -3 -9 -10 -37 -16 -63
-5 -26 -22 -69 -36 -95 -77 -141 -87 -154 -123 -173 l-38 -19 18 37 c10 20 27
72 38 114 11 42 33 105 49 140 17 35 32 71 36 81 6 20 16 21 51 5z m792 -69
c12 -36 23 -81 24 -100 3 -32 -13 -219 -21 -259 -3 -14 -41 47 -50 81 -11 41
-24 50 -34 23 -8 -21 26 -97 58 -129 31 -31 33 -39 6 -25 -26 14 -68 77 -80
121 -6 19 -12 61 -15 94 -6 60 -8 75 -21 155 -7 41 -8 63 -5 89 1 9 76 20 106
16 6 -1 20 -31 32 -66z m-734 -20 c-6 -23 -23 -36 -23 -17 0 30 13 59 20 48 4
-7 5 -21 3 -31z m591 -187 c4 -35 13 -82 20 -103 l14 -39 -39 0 -38 0 -3 118
c-2 69 -7 117 -13 117 -6 0 -11 -48 -13 -117 l-3 -118 -24 0 c-14 0 -25 6 -26
13 0 6 -2 67 -4 135 -4 110 2 141 20 112 8 -14 35 -12 65 3 24 12 25 11 31
-23 4 -19 10 -64 13 -98z m-644 64 c-5 -15 -10 -43 -10 -62 0 -34 -6 -39 -34
-28 -14 5 -11 15 16 65 33 60 46 72 28 25z m-40 -131 c0 -9 -88 -55 -106 -55
-12 0 0 11 31 30 46 27 75 37 75 25z m-180 -95 c0 -5 -8 -10 -17 -10 -15 0
-16 2 -3 10 19 12 20 12 20 0z m44 -47 c-10 -7 -21 -13 -26 -13 -11 0 3 33 21
48 13 11 17 10 20 -4 2 -10 -5 -24 -15 -31z"/>
<path d="M658 681 c-12 -15 -28 -37 -35 -47 -11 -18 -12 -18 -13 1 -2 30 -8
56 -14 62 -12 13 -25 -11 -21 -40 2 -18 7 -54 10 -82 4 -27 8 -63 10 -79 13
-92 39 -86 38 9 -1 72 14 115 56 164 19 22 20 41 1 41 -4 0 -19 -13 -32 -29z"/>
<path d="M390 168 c0 -2 -3 -40 -7 -86 -5 -72 -4 -82 11 -82 11 0 16 9 16 33
l0 32 20 -32 c12 -20 28 -33 40 -33 20 0 19 1 -4 39 -24 38 -34 64 -40 107 -2
10 -10 20 -19 22 -10 2 -17 2 -17 0z"/>
</g>
</svg>
