<?xml version="1.0" standalone="no"?>
<!DOCTYPE svg PUBLIC "-//W3C//DTD SVG 20010904//EN"
 "http://www.w3.org/TR/2001/REC-SVG-20010904/DTD/svg10.dtd">
<svg version="1.0" xmlns="http://www.w3.org/2000/svg"
 width="304.000000pt" height="304.000000pt" viewBox="0 0 304.000000 304.000000"
 preserveAspectRatio="xMidYMid meet">
<metadata>
Created by potrace 1.14, written by Peter Selinger 2001-2017
</metadata>
<g transform="translate(0.000000,304.000000) scale(0.100000,-0.100000)"
fill="#000000" stroke="none">
<path d="M1338 2901 c-31 -10 -72 -28 -91 -40 -41 -25 -97 -86 -97 -105 0 -7
-23 -28 -50 -47 -86 -58 -91 -137 -15 -227 26 -30 47 -74 76 -159 41 -124 59
-149 90 -132 15 7 19 6 19 -6 0 -8 15 -32 34 -53 l35 -38 -32 -13 c-18 -7 -68
-26 -111 -42 -116 -44 -200 -109 -236 -184 -37 -75 -70 -201 -74 -283 -3 -49
-9 -68 -25 -83 -17 -16 -20 -27 -15 -55 7 -41 -34 -175 -75 -244 -33 -54 -78
-167 -86 -212 -17 -100 -89 -318 -117 -353 -11 -14 -45 -39 -77 -54 -70 -36
-103 -70 -106 -113 -2 -30 -10 -37 -80 -78 -115 -66 -121 -112 -25 -178 44
-29 76 -28 129 7 l44 29 38 -20 39 -20 87 41 c115 53 133 70 133 130 0 25 6
53 13 62 12 16 171 109 192 112 6 1 9 -3 8 -9 -55 -297 -62 -382 -37 -469 18
-63 20 -65 51 -65 18 0 33 2 33 4 0 2 -9 35 -21 72 -25 82 -23 109 25 385 44
246 44 250 52 334 4 44 19 102 41 157 l34 86 47 11 c137 32 233 40 452 38 212
-2 225 -1 228 17 2 10 0 22 -5 27 -13 13 -140 23 -297 22 -90 0 -133 3 -122 9
24 13 20 24 -23 76 -22 26 -57 76 -79 112 -40 66 -73 87 -86 55 -3 -9 4 -35
15 -58 27 -54 116 -174 137 -186 13 -7 9 -10 -18 -14 -19 -3 -74 -12 -122 -20
l-87 -14 16 39 c12 31 13 45 4 64 -6 14 -11 47 -11 73 0 50 -9 61 -50 61 -10
0 -41 14 -69 31 -28 18 -79 40 -113 50 -35 10 -57 18 -51 18 21 2 41 54 41
111 1 63 30 184 63 260 27 63 112 128 215 164 38 13 77 27 86 31 13 5 20 1 27
-18 15 -38 69 -95 117 -123 113 -67 241 -29 339 101 31 40 24 44 112 -70 61
-81 88 -124 81 -130 -2 -3 -24 2 -48 9 -52 15 -76 11 -85 -12 -7 -20 19 -42
51 -42 12 0 36 -14 54 -30 l33 -30 -7 -80 c-6 -77 -31 -213 -42 -231 -3 -5 -5
-32 -6 -60 0 -40 9 -69 42 -135 48 -96 44 -57 56 -624 6 -305 9 -442 13 -517
1 -19 7 -23 32 -23 l31 0 -4 75 c-2 41 -1 75 2 76 3 1 118 2 256 3 l251 1 0
-47 0 -48 -186 -2 -186 -3 0 -25 0 -25 293 -3 c281 -2 292 -2 292 17 0 27 -18
38 -75 45 -32 4 -56 14 -67 27 -17 20 -16 22 17 66 33 43 35 61 12 90 -5 7 -6
25 -2 40 16 56 27 141 40 313 8 113 14 168 26 244 20 122 -6 267 -78 451 -37
93 -38 100 -29 197 6 73 -8 118 -53 170 -35 41 -118 88 -158 88 -23 0 -46 25
-132 146 -64 88 -124 135 -205 159 -47 14 -77 18 -228 29 -32 3 -63 8 -68 11
-20 13 -59 84 -81 147 l-21 63 23 15 c81 53 117 113 113 188 -4 108 -44 184
-113 219 -24 12 -74 52 -111 88 -109 104 -180 125 -302 86z m157 -55 c19 -8
68 -46 109 -85 40 -38 90 -76 109 -85 94 -39 120 -201 44 -270 l-32 -30 -10
38 c-13 45 -35 59 -120 76 -41 8 -67 21 -85 39 -59 62 -150 101 -236 101 -70
0 -129 40 -90 62 8 4 19 23 25 41 18 54 143 123 229 126 12 1 38 -6 57 -13z
m-371 -215 c8 -12 -4 -71 -14 -71 -11 0 -19 37 -13 60 6 21 18 26 27 11z m225
-78 c50 -12 72 -25 101 -55 41 -42 82 -62 147 -73 46 -7 56 -16 61 -55 15
-115 43 -200 94 -281 l22 -36 -38 -51 c-60 -78 -135 -111 -207 -92 -43 12
-116 71 -129 105 -10 28 -1 47 20 40 24 -8 81 17 110 46 36 38 70 97 95 164
21 55 22 65 10 81 -21 29 -42 9 -72 -66 -40 -101 -87 -159 -128 -160 -11 0
-33 9 -48 19 l-29 18 31 22 c17 12 31 26 31 31 0 16 -39 18 -60 3 -19 -13 -24
-13 -31 -2 -5 8 -9 21 -9 29 0 27 -20 39 -47 29 -17 -6 -25 -5 -28 4 -37 100
-75 222 -75 240 0 59 8 66 64 61 28 -3 80 -12 115 -21z m773 -563 c74 -27 114
-64 185 -168 l62 -89 -51 -33 c-104 -68 -260 -311 -283 -443 -8 -42 -13 -45
-25 -13 -14 37 -13 68 5 135 28 112 36 174 36 303 0 68 -5 118 -14 140 -11 27
-74 117 -131 187 -17 21 148 7 216 -19z m402 -328 c54 -32 89 -86 90 -140 2
-87 -38 -127 -131 -131 -55 -3 -59 0 -118 70 -29 35 -68 52 -108 47 -42 -5
-41 -2 25 75 83 96 166 123 242 79z m-210 -237 c31 -28 33 -58 7 -91 -16 -20
-18 -38 -15 -111 3 -97 -3 -115 -49 -143 -39 -24 -80 -26 -98 -3 -8 9 -28 22
-46 29 -31 14 -32 15 -27 66 11 126 61 224 129 258 52 26 66 25 99 -5z m-1299
-82 c55 -28 55 -29 34 -91 -11 -31 -25 -84 -30 -116 -8 -45 -36 -108 -121
-265 -60 -113 -117 -214 -125 -223 -9 -10 -75 -50 -147 -89 -72 -40 -142 -79
-156 -88 -24 -15 -24 -15 -11 2 8 10 40 32 72 47 31 16 68 42 81 59 32 38 80
169 124 340 24 93 48 161 78 217 36 68 58 122 91 231 4 13 59 1 110 -24z
m1626 -59 c80 -199 96 -313 71 -494 -7 -47 -15 -128 -18 -180 -4 -52 -8 -102
-10 -110 -1 -8 -3 -25 -3 -38 -1 -19 -4 -21 -21 -12 -27 14 -71 92 -96 170
-17 50 -26 66 -43 68 -29 5 -36 -19 -21 -76 28 -104 98 -211 148 -226 22 -7
27 -26 13 -59 -6 -15 -17 -7 -74 52 -71 73 -105 135 -131 238 -13 54 -18 83
-31 208 -16 151 -22 200 -41 305 -22 129 -22 152 -2 179 17 22 25 24 91 22 46
-1 81 4 97 13 14 8 29 13 34 12 5 -1 22 -33 37 -72z m-1513 -46 c-1 -7 1 -23
5 -35 6 -16 -6 -52 -41 -130 -65 -141 -81 -190 -87 -265 -3 -35 -8 -81 -11
-102 -6 -37 -7 -39 -20 -21 -10 13 -27 19 -53 20 l-40 0 47 85 c101 186 143
277 153 335 13 79 28 125 40 125 6 0 9 -6 7 -12z m1070 -238 c32 0 61 8 91 25
23 14 44 25 46 25 1 0 6 -30 10 -67 4 -38 8 -75 10 -83 1 -8 6 -46 9 -85 14
-143 33 -246 60 -310 8 -19 12 -36 8 -38 -4 -2 -41 -3 -82 -3 l-75 1 0 235 c0
129 -4 241 -8 248 -12 17 -35 15 -45 -5 -5 -10 -8 -120 -8 -246 1 -144 -3
-227 -9 -228 -5 -1 -31 -2 -57 -3 l-48 -2 -1 76 c-1 41 -2 102 -4 135 -2 64
-7 354 -6 368 1 5 15 -3 32 -17 23 -20 41 -26 77 -26z m-1258 -381 c0 -15
-214 -128 -225 -119 -23 19 -165 -64 -165 -97 0 -16 -5 -16 -29 -3 -25 13 -47
-6 -63 -52 -15 -43 -98 -109 -128 -101 -19 5 -56 40 -49 46 5 5 256 145 339
190 36 20 117 65 180 100 83 47 119 62 128 55 6 -6 12 -14 12 -19z m-250 -226
c0 -21 -4 -42 -8 -48 -10 -14 -139 -75 -157 -75 -8 0 -15 7 -15 16 0 8 5 12
11 9 26 -16 58 6 75 51 11 30 29 53 48 65 42 26 46 24 46 -18z m1801 -5 c5
-10 8 -21 7 -25 -2 -5 -70 -9 -153 -9 -82 -1 -157 -2 -166 -3 -24 -2 -31 -28
-13 -46 13 -12 50 -15 220 -15 200 0 205 -1 227 -23 54 -56 69 -52 -231 -52
l-276 0 -3 85 c-1 47 -1 90 1 95 2 7 71 10 191 10 165 0 188 -2 196 -17z"/>
<path d="M1290 2483 c-34 -13 -70 -46 -70 -64 0 -22 25 -26 37 -5 14 24 55 39
105 37 35 0 48 3 48 13 0 8 -7 17 -16 20 -19 7 -83 7 -104 -1z"/>
<path d="M1283 2418 c-26 -13 -31 -55 -8 -64 35 -14 107 39 90 66 -8 13 -54
12 -82 -2z"/>
<path d="M1135 1923 c-23 -22 -54 -97 -63 -148 -9 -53 -5 -252 5 -289 22 -76
79 -50 61 27 -15 64 -17 196 -3 252 6 27 21 70 33 94 26 53 27 67 6 75 -21 8
-20 8 -39 -11z"/>
<path d="M1627 1711 c-24 -28 -57 -76 -73 -107 l-29 -58 -12 95 c-6 52 -12 95
-12 97 -3 9 -51 0 -52 -10 -4 -36 26 -305 45 -413 16 -85 20 -102 28 -117 11
-22 44 -24 51 -3 4 8 0 43 -7 77 -17 81 -10 155 21 242 27 75 64 135 107 175
29 28 34 56 10 65 -26 10 -31 8 -77 -43z"/>
<path d="M1072 623 c-26 -49 -37 -356 -17 -489 19 -130 21 -134 56 -134 28 0
30 2 25 27 -3 16 -9 46 -12 68 -3 22 -8 43 -10 46 -8 14 -14 270 -6 265 5 -3
26 -35 47 -71 64 -109 174 -206 302 -267 70 -33 97 -33 101 -1 3 19 -6 27 -51
47 -199 88 -327 240 -366 434 -15 74 -21 87 -39 90 -12 2 -25 -4 -30 -15z"/>
</g>
</svg>
